<mxfile host="app.diagrams.net" modified="2024-01-21T23:04:49.666Z" agent="Mozilla/5.0 (Windows NT 10.0; Win64; x64) AppleWebKit/537.36 (KHTML, like Gecko) Chrome/120.0.0.0 Safari/537.36" version="22.1.17" etag="Q7QXWDGAJDI5mktrHQTD" type="github">
  <diagram name="페이지-1" id="58KIlDRD3JL9YyRI8E8g">
    <mxGraphModel>
      <root>
        <mxCell id="0" />
        <mxCell id="1" parent="0" />
      </root>
    </mxGraphModel>
  </diagram>
</mxfile>
